<svg width="23" height="16" viewBox="0 0 23 16" fill="none" xmlns="http://www.w3.org/2000/svg">
<path d="M6.22596 5.292C6.95834 5.3865 7.59622 4.86675 7.69072 4.15799C7.78522 3.42561 7.26547 2.78774 6.55672 2.69323C5.82434 2.59873 5.18646 3.11849 5.09196 3.82724C4.97383 4.536 5.49358 5.1975 6.22596 5.292Z" fill="white"/>
<path d="M22.4796 8.50506C22.4323 8.31606 22.2197 8.22156 22.0543 8.26881L18.6287 9.33194C19.7154 8.36331 20.4006 6.9458 20.4006 5.36291C20.4006 2.40977 18.0144 0 15.0376 0C12.0845 0 9.67473 2.38614 9.67473 5.36291C9.67473 8.10343 11.7301 10.3478 14.3525 10.6786L7.02871 12.9702L7.31222 10.4423C7.33584 10.1352 7.17047 9.80444 6.88696 9.68632L5.63483 9.11931L6.36721 7.11117L8.02097 7.0403C8.09185 7.0403 8.16272 7.01667 8.2336 6.99305L9.13135 6.61505C9.06048 6.21342 9.01323 5.81179 9.01323 5.38654V5.29204L7.8556 5.76454L6.41446 5.83542L5.20958 5.41016C4.97333 5.33929 4.73707 5.33929 4.52445 5.45741C4.31182 5.57554 4.17007 5.78816 4.09919 6.02442L3.39044 9.02481C3.29594 9.37919 3.46131 9.75719 3.79207 9.89894L5.77658 10.7967L5.54033 12.923C5.5167 13.0883 5.56395 13.2537 5.63483 13.3718L3.79207 13.9388L4.83157 11.0566L3.50857 10.4423C3.48494 10.4423 3.48494 10.4187 3.46131 10.4187L2.20918 13.8207C2.13831 14.0097 2.16193 14.2223 2.23281 14.4114L0.248293 15.0256C0.0592913 15.0729 -0.0352093 15.2855 0.012041 15.4509C0.0592913 15.5926 0.201042 15.6871 0.342793 15.6871C0.366418 15.6871 0.413669 15.6871 0.437294 15.6635L22.1961 8.85944C22.4323 8.88306 22.5504 8.69406 22.4796 8.50506Z" fill="white"/>
</svg>
