<svg width="230" height="330" viewBox="0 0 230 330" fill="none" xmlns="http://www.w3.org/2000/svg">
<rect width="230" height="330" rx="10" fill="#484848" fill-opacity="0.8"/>
<path d="M69.112 156.816L71.824 142.2H73.552L70.408 159H67.648L64.48 142.2H66.376L69.112 156.816ZM80.9673 151.32H76.8633V157.296H81.9033V159H74.9913V142.2H81.9033V143.904H76.8633V149.64H80.9673V151.32ZM83.1597 157.296C83.3677 157.312 83.6797 157.32 84.0957 157.32C84.7517 157.288 85.2397 157.096 85.5597 156.744C85.8957 156.376 86.0637 155.784 86.0637 154.968V142.2H87.9117V154.848C87.9117 157.568 86.7197 158.96 84.3357 159.024H83.7357C83.4957 159.024 83.3037 159.016 83.1597 159V157.296ZM91.0049 159H89.2769L92.4929 142.2H95.2049L98.4209 159H96.5489L95.9009 155.616H91.6529L91.0049 159ZM95.6369 154.008L93.7409 144.312L91.8929 154.008H95.6369ZM103.464 146.256C103.464 144.944 103.784 143.912 104.424 143.16C105.08 142.408 106.04 142.032 107.304 142.032C108.568 142.032 109.528 142.408 110.184 143.16C110.84 143.912 111.168 144.944 111.168 146.256V154.944C111.168 156.256 110.84 157.288 110.184 158.04C109.528 158.792 108.568 159.168 107.304 159.168C106.056 159.168 105.104 158.792 104.448 158.04C103.792 157.288 103.464 156.256 103.464 154.944V146.256ZM105.312 155.04C105.312 155.824 105.48 156.424 105.816 156.84C106.152 157.256 106.648 157.464 107.304 157.464C108.632 157.464 109.296 156.656 109.296 155.04V146.16C109.296 145.392 109.128 144.8 108.792 144.384C108.472 143.952 107.976 143.736 107.304 143.736C106.648 143.736 106.152 143.952 105.816 144.384C105.48 144.8 105.312 145.392 105.312 146.16V155.04ZM68.704 166.2C70 166.2 70.944 166.52 71.536 167.16C72.144 167.8 72.448 168.76 72.448 170.04V171.408C72.448 172.336 72.28 173.088 71.944 173.664C71.608 174.24 71.08 174.64 70.36 174.864C71.096 175.088 71.632 175.496 71.968 176.088C72.304 176.664 72.472 177.424 72.472 178.368V180.984C72.472 181.448 72.488 181.84 72.52 182.16C72.568 182.464 72.664 182.744 72.808 183H70.912C70.8 182.744 70.72 182.48 70.672 182.208C70.624 181.92 70.6 181.504 70.6 180.96V178.32C70.6 177.408 70.392 176.768 69.976 176.4C69.576 176.016 68.968 175.824 68.152 175.824H66.832V183H64.96V166.2H68.704ZM68.224 174.12C69.024 174.12 69.616 173.952 70 173.616C70.4 173.28 70.6 172.68 70.6 171.816V170.208C70.6 169.44 70.448 168.864 70.144 168.48C69.84 168.096 69.344 167.904 68.656 167.904H66.832V174.12H68.224ZM80.3813 175.32H76.2773V181.296H81.3173V183H74.4053V166.2H81.3173V167.904H76.2773V173.64H80.3813V175.32ZM86.5818 166.032C87.8138 166.032 88.7418 166.408 89.3658 167.16C90.0058 167.896 90.3258 168.92 90.3258 170.232V170.688H88.5498V170.136C88.5498 168.536 87.9098 167.736 86.6298 167.736C85.3498 167.736 84.7098 168.528 84.7098 170.112C84.7098 170.912 84.9258 171.592 85.3578 172.152C85.7898 172.696 86.4378 173.304 87.3018 173.976C87.9898 174.552 88.5258 175.04 88.9098 175.44C89.3098 175.84 89.6458 176.336 89.9178 176.928C90.2058 177.52 90.3498 178.2 90.3498 178.968C90.3498 180.28 90.0298 181.312 89.3898 182.064C88.7498 182.8 87.8058 183.168 86.5578 183.168C85.3098 183.168 84.3658 182.8 83.7258 182.064C83.1018 181.312 82.7898 180.28 82.7898 178.968V178.008H84.5418V179.064C84.5418 179.832 84.7018 180.424 85.0218 180.84C85.3578 181.256 85.8538 181.464 86.5098 181.464C87.1658 181.464 87.6538 181.256 87.9738 180.84C88.3098 180.424 88.4778 179.832 88.4778 179.064C88.4778 178.28 88.2618 177.616 87.8298 177.072C87.4138 176.528 86.7738 175.912 85.9098 175.224C85.2538 174.68 84.7178 174.208 84.3018 173.808C83.9018 173.392 83.5578 172.888 83.2698 172.296C82.9978 171.688 82.8618 171 82.8618 170.232C82.8618 168.904 83.1738 167.872 83.7978 167.136C84.4218 166.4 85.3498 166.032 86.5818 166.032ZM93.7594 179.04C93.7594 180.656 94.4154 181.464 95.7274 181.464C96.3834 181.464 96.8714 181.256 97.1914 180.84C97.5114 180.424 97.6714 179.824 97.6714 179.04V166.2H99.4234V178.944C99.4234 180.272 99.1114 181.312 98.4874 182.064C97.8634 182.816 96.9194 183.192 95.6554 183.192C94.4074 183.192 93.4714 182.816 92.8474 182.064C92.2234 181.296 91.9114 180.256 91.9114 178.944V166.2H93.7594V179.04ZM101.265 166.2H103.137V181.296H107.937V183H101.265V166.2ZM110.579 167.904H107.483V166.2H115.523V167.904H112.427V183H110.579V167.904ZM117.138 183H115.41L118.626 166.2H121.338L124.554 183H122.682L122.034 179.616H117.786L117.138 183ZM121.77 178.008L119.874 168.312L118.026 178.008H121.77ZM129.951 166.2C131.231 166.2 132.183 166.568 132.807 167.304C133.447 168.024 133.767 169.048 133.767 170.376V178.848C133.767 180.16 133.447 181.184 132.807 181.92C132.183 182.64 131.231 183 129.951 183H126.015V166.2H129.951ZM129.927 181.296C131.255 181.296 131.919 180.504 131.919 178.92V170.28C131.919 168.696 131.247 167.904 129.903 167.904H127.887V181.296H129.927ZM135.386 170.256C135.386 168.944 135.706 167.912 136.346 167.16C137.002 166.408 137.962 166.032 139.226 166.032C140.49 166.032 141.45 166.408 142.106 167.16C142.762 167.912 143.09 168.944 143.09 170.256V178.944C143.09 180.256 142.762 181.288 142.106 182.04C141.45 182.792 140.49 183.168 139.226 183.168C137.978 183.168 137.026 182.792 136.37 182.04C135.714 181.288 135.386 180.256 135.386 178.944V170.256ZM137.234 179.04C137.234 179.824 137.402 180.424 137.738 180.84C138.074 181.256 138.57 181.464 139.226 181.464C140.554 181.464 141.218 180.656 141.218 179.04V170.16C141.218 169.392 141.05 168.8 140.714 168.384C140.394 167.952 139.898 167.736 139.226 167.736C138.57 167.736 138.074 167.952 137.738 168.384C137.402 168.8 137.234 169.392 137.234 170.16V179.04Z" fill="white"/>
</svg>
