<svg width="32" height="32" viewBox="0 0 32 32" fill="none" xmlns="http://www.w3.org/2000/svg">
<path d="M13.4274 27.3372C13.4274 27.1416 13.3844 26.9485 13.3014 26.7714C13.2184 26.5944 13.0974 26.4377 12.9472 26.3126C12.7969 26.1875 12.6209 26.097 12.4318 26.0474C12.2426 25.9979 12.0449 25.9906 11.8526 26.026C10.1071 26.3463 7.90334 26.3945 7.3174 24.7486C6.80647 23.474 5.96016 22.3613 4.86818 21.5286C4.79027 21.4863 4.71601 21.4375 4.64618 21.3828C4.55061 21.1307 4.38086 20.9135 4.15933 20.7598C3.9378 20.6062 3.67489 20.5233 3.40529 20.5221H3.39878C3.04625 20.522 2.70802 20.6615 2.45813 20.9102C2.20824 21.1589 2.06705 21.4964 2.06545 21.8489C2.06024 22.9362 3.14678 23.6328 3.58758 23.8685C4.10737 24.3907 4.52512 25.0054 4.81936 25.681C5.30504 27.0456 6.71649 29.1159 10.7738 28.849C10.7751 28.8959 10.7764 28.9401 10.777 28.9805L10.7829 29.3373C10.7829 29.6909 10.9234 30.03 11.1734 30.2801C11.4235 30.5301 11.7626 30.6706 12.1162 30.6706C12.4698 30.6706 12.809 30.5301 13.059 30.2801C13.3091 30.03 13.4496 29.6909 13.4496 29.3373L13.443 28.9128C13.4365 28.6601 13.4274 28.2942 13.4274 27.3372ZM27.6501 7.16917C27.6924 7.0025 27.7341 6.81761 27.7705 6.60928C27.9862 5.12339 27.7982 3.60686 27.2263 2.21861C27.1541 2.03763 27.0432 1.87462 26.9014 1.74101C26.7596 1.60741 26.5903 1.50644 26.4053 1.44518C25.9306 1.28502 24.1781 0.969916 20.8265 3.11185C18.0406 2.45624 15.1405 2.45624 12.3545 3.11185C9.01662 1.00129 7.27313 1.28769 6.80307 1.43873C6.61356 1.4975 6.4396 1.59794 6.29394 1.73267C6.14828 1.86741 6.03462 2.03303 5.96127 2.2174C5.37768 3.6323 5.19173 5.17976 5.42352 6.69265C5.45608 6.86322 5.49122 7.02078 5.52769 7.1653C4.42312 8.63656 3.83477 10.4311 3.85386 12.2708C3.85026 12.6812 3.86917 13.0916 3.9105 13.4999C4.35584 19.6367 8.35583 21.4791 11.1429 22.1119C11.085 22.2786 11.0322 22.457 10.9854 22.6458C10.9018 22.9888 10.9577 23.351 11.1408 23.6529C11.3239 23.9548 11.6193 24.1718 11.9621 24.2563C12.305 24.3407 12.6673 24.2858 12.9697 24.1035C13.2721 23.9212 13.4898 23.6264 13.5752 23.2838C13.66 22.8395 13.8775 22.4314 14.1989 22.1132C14.3933 21.9431 14.534 21.7201 14.6039 21.4715C14.6739 21.2228 14.6701 20.9592 14.593 20.7127C14.5158 20.4662 14.3687 20.2474 14.1696 20.0829C13.9704 19.9185 13.7277 19.8155 13.471 19.7864C8.86558 19.2604 6.86622 17.3841 6.56545 13.2552C6.53213 12.9281 6.51713 12.5995 6.52053 12.2708C6.49914 10.9597 6.9323 9.68155 7.74643 8.6536C7.82824 8.54643 7.91537 8.44343 8.0075 8.345C8.17074 8.16233 8.2805 7.93822 8.32472 7.69727C8.36894 7.45632 8.34591 7.20784 8.25817 6.97912C8.16822 6.73849 8.09896 6.49063 8.05114 6.23822C7.94252 5.52051 7.97815 4.78834 8.15594 4.08457C9.31479 4.41187 10.4054 4.94463 11.3759 5.65748C11.5364 5.76438 11.718 5.83551 11.9084 5.86607C12.0988 5.89662 12.2936 5.88588 12.4795 5.83457C15.1743 5.10324 18.0154 5.1037 20.7099 5.8359C20.8968 5.88716 21.0926 5.89729 21.2838 5.86559C21.475 5.8339 21.657 5.76114 21.8173 5.65232C22.7833 4.9365 23.8694 4.39898 25.0244 4.06508C25.2014 4.75195 25.241 5.46702 25.1409 6.16924C25.0926 6.44595 25.0172 6.71723 24.9156 6.97914C24.8279 7.20787 24.8049 7.45634 24.8491 7.6973C24.8933 7.93825 25.0031 8.16236 25.1663 8.34502C25.2692 8.4609 25.372 8.5859 25.4645 8.70309C26.2729 9.71365 26.6987 10.9771 26.667 12.2708C26.6694 12.6169 26.6527 12.9629 26.6169 13.3072C26.3233 17.3814 24.3161 19.2591 19.6891 19.7864C19.4324 19.8156 19.1897 19.9188 18.9906 20.0834C18.7914 20.2481 18.6444 20.467 18.5673 20.7136C18.4903 20.9602 18.4866 21.224 18.5566 21.4727C18.6267 21.7214 18.7675 21.9444 18.9619 22.1145C19.2934 22.4412 19.5114 22.8657 19.5837 23.3255C19.6738 23.6824 19.7152 24.0499 19.7067 24.4179V27.5299C19.6937 28.3932 19.6937 29.0403 19.6937 29.3372C19.6937 29.6908 19.8342 30.0299 20.0842 30.28C20.3342 30.53 20.6734 30.6705 21.027 30.6705C21.3806 30.6705 21.7198 30.53 21.9698 30.28C22.2199 30.0299 22.3603 29.6908 22.3603 29.3372C22.3603 29.0481 22.3603 28.414 22.3734 27.5507V24.4179C22.3841 23.8283 22.3147 23.2401 22.167 22.6692C22.1248 22.4818 22.073 22.2967 22.012 22.1145C24.0404 21.7776 25.8833 20.7318 27.2129 19.1633C28.5424 17.5949 29.2722 15.6056 29.2724 13.5494C29.3164 13.1247 29.3368 12.6978 29.3337 12.2708C29.3633 10.4291 28.77 8.63147 27.6501 7.1692L27.6501 7.16917Z" fill="#D9AD29"/>
</svg>
