<svg width="32" height="32" viewBox="0 0 32 32" fill="none" xmlns="http://www.w3.org/2000/svg">
<path d="M7.80727 9.11949C7.49737 8.95262 7.12256 8.96096 6.82038 9.14144C6.51821 9.32193 6.33317 9.64799 6.33317 9.99996V22.6666C6.33317 23.2189 6.78089 23.6666 7.33317 23.6666C7.88546 23.6666 8.33317 23.2189 8.33317 22.6666V11.6742L15.5257 15.5471C15.8217 15.7065 16.178 15.7065 16.4739 15.5471L23.6665 11.6742V22.6666C23.6665 23.2189 24.1142 23.6666 24.6665 23.6666C25.2188 23.6666 25.6665 23.2189 25.6665 22.6666V9.99996C25.6665 9.64799 25.4815 9.32193 25.1793 9.14144C24.8771 8.96096 24.5023 8.95262 24.1924 9.11949L15.9998 13.5309L7.80727 9.11949Z" fill="#D9AD29"/>
<path fill-rule="evenodd" clip-rule="evenodd" d="M23.0806 4.96241C18.3695 4.54118 13.6302 4.54118 8.91907 4.96241L6.89595 5.1433C4.7258 5.33733 2.97237 6.99523 2.65718 9.15112C1.99318 13.6929 1.99318 18.307 2.65718 22.8488C2.97237 25.0047 4.7258 26.6626 6.89595 26.8566L8.91907 27.0375C13.6302 27.4587 18.3695 27.4587 23.0806 27.0375L25.1038 26.8566C27.2739 26.6626 29.0273 25.0047 29.3425 22.8488C30.0065 18.307 30.0065 13.6929 29.3425 9.15112C29.0273 6.99523 27.2739 5.33733 25.1038 5.1433L23.0806 4.96241ZM9.09719 6.95446C13.6898 6.54383 18.3099 6.54383 22.9025 6.95446L24.9256 7.13535C26.1738 7.24695 27.1823 8.20049 27.3636 9.44044C27.9995 13.7903 27.9995 18.2096 27.3636 22.5595C27.1823 23.7994 26.1738 24.753 24.9256 24.8646L22.9025 25.0455C18.3099 25.4561 13.6898 25.4561 9.09719 25.0455L7.07406 24.8646C5.8259 24.753 4.81742 23.7994 4.63614 22.5595C4.00019 18.2096 4.00019 13.7903 4.63614 9.44044C4.81742 8.20049 5.8259 7.24695 7.07406 7.13535L9.09719 6.95446Z" fill="#D9AD29"/>
</svg>
