<svg width="32" height="32" viewBox="0 0 32 32" fill="none" xmlns="http://www.w3.org/2000/svg">
<path d="M23.3333 11.9987C22.1396 11.9982 20.9644 12.2935 19.9127 12.8581C19.8168 12.6053 19.6462 12.3877 19.4236 12.2342C19.201 12.0807 18.937 11.9986 18.6666 11.9987H13.3333C13.1582 11.9986 12.9847 12.033 12.8229 12.1C12.6611 12.167 12.5141 12.2652 12.3903 12.389C12.2664 12.5128 12.1682 12.6599 12.1013 12.8217C12.0343 12.9835 11.9999 13.1569 12 13.332V29.332C11.9999 29.5072 12.0343 29.6806 12.1012 29.8424C12.1682 30.0042 12.2664 30.1512 12.3903 30.2751C12.5141 30.3989 12.6611 30.4971 12.8229 30.5641C12.9847 30.6311 13.1582 30.6655 13.3333 30.6654H18.6666C18.8418 30.6655 19.0152 30.6311 19.177 30.5641C19.3388 30.4971 19.4858 30.3989 19.6097 30.2751C19.7335 30.1512 19.8317 30.0042 19.8987 29.8424C19.9656 29.6806 20.0001 29.5072 20 29.332V21.9987C20 21.6451 20.1404 21.3059 20.3905 21.0559C20.6405 20.8059 20.9797 20.6654 21.3333 20.6654C21.6869 20.6654 22.0261 20.8059 22.2761 21.0559C22.5262 21.3059 22.6666 21.6451 22.6666 21.9987V29.332C22.6665 29.5072 22.7009 29.6806 22.7679 29.8424C22.8349 30.0042 22.9331 30.1512 23.0569 30.2751C23.1808 30.3989 23.3278 30.4971 23.4896 30.5641C23.6514 30.6311 23.8248 30.6655 24 30.6654H29.3333C29.5084 30.6655 29.6818 30.6311 29.8437 30.5641C30.0055 30.4971 30.1525 30.3989 30.2763 30.2751C30.4002 30.1512 30.4984 30.0042 30.5653 29.8424C30.6323 29.6806 30.6667 29.5072 30.6666 29.332V19.332C30.6642 17.3879 29.8908 15.524 28.5161 14.1493C27.1413 12.7745 25.2775 12.0011 23.3333 11.9987V11.9987ZM28 27.9987H25.3333V21.9987C25.3333 20.9378 24.9119 19.9204 24.1617 19.1703C23.4116 18.4201 22.3942 17.9987 21.3333 17.9987C20.2724 17.9987 19.255 18.4201 18.5049 19.1703C17.7547 19.9204 17.3333 20.9378 17.3333 21.9987V27.9987H14.6666V14.6654H17.3333V15.6029C17.3335 15.8791 17.4194 16.1486 17.5792 16.3739C17.7391 16.5992 17.9649 16.7694 18.2256 16.8608C18.4863 16.9523 18.7689 16.9606 19.0345 16.8845C19.3001 16.8085 19.5355 16.6518 19.7083 16.4362C20.3067 15.6763 21.1274 15.1221 22.0559 14.8512C22.9845 14.5803 23.9744 14.6061 24.8876 14.925C25.8008 15.2439 26.5915 15.84 27.1495 16.6301C27.7075 17.4202 28.0048 18.3648 28 19.332V27.9987ZM9.33329 11.9987H3.99996C3.82484 11.9986 3.65141 12.033 3.4896 12.1C3.32779 12.167 3.18076 12.2652 3.05693 12.389C2.9331 12.5128 2.83489 12.6599 2.76792 12.8217C2.70095 12.9835 2.66653 13.1569 2.66663 13.332V29.332C2.66653 29.5072 2.70094 29.6806 2.76791 29.8424C2.83489 30.0042 2.93309 30.1512 3.05693 30.2751C3.18076 30.3989 3.32778 30.4971 3.4896 30.5641C3.65141 30.6311 3.82484 30.6655 3.99996 30.6654H9.33329C9.50842 30.6655 9.68185 30.6311 9.84366 30.5641C10.0055 30.4971 10.1525 30.3989 10.2763 30.2751C10.4002 30.1512 10.4984 30.0042 10.5653 29.8424C10.6323 29.6806 10.6667 29.5072 10.6666 29.332V13.332C10.6667 13.1569 10.6323 12.9835 10.5653 12.8217C10.4984 12.6599 10.4002 12.5128 10.2763 12.389C10.1525 12.2652 10.0055 12.167 9.84366 12.1C9.68184 12.033 9.50842 11.9986 9.33329 11.9987V11.9987ZM7.99996 27.9987H5.33329V14.6654H7.99996V27.9987ZM6.68616 2.05604C6.10264 2.02111 5.51812 2.10524 4.96813 2.3033C4.41814 2.50136 3.91419 2.80923 3.48692 3.20817C3.05964 3.6071 2.71798 4.08878 2.48271 4.62391C2.24743 5.15903 2.12346 5.73642 2.11833 6.32096C2.1132 6.9055 2.22702 7.48498 2.45287 8.02415C2.67872 8.56332 3.01188 9.05092 3.43209 9.4573C3.8523 9.86367 4.35077 10.1803 4.8972 10.388C5.44363 10.5957 6.02659 10.6901 6.61063 10.6654H6.64839C7.23345 10.7001 7.81946 10.6152 8.37059 10.4158C8.92173 10.2165 9.42643 9.90681 9.85386 9.50579C10.2813 9.10477 10.6224 8.62081 10.8565 8.08348C11.0906 7.54615 11.2126 6.96674 11.2152 6.38066C11.2178 5.79457 11.1008 5.21411 10.8715 4.67475C10.6421 4.13539 10.3052 3.64846 9.88132 3.2437C9.45743 2.83895 8.95547 2.52487 8.4061 2.32067C7.85673 2.11647 7.27149 2.02642 6.68615 2.05604H6.68616ZM6.6484 7.99871H6.61063C6.38005 8.02671 6.14615 8.00508 5.92462 7.93528C5.70308 7.86548 5.49903 7.74912 5.32615 7.59399C5.15327 7.43887 5.01556 7.24858 4.92225 7.03588C4.82893 6.82317 4.78218 6.59297 4.78512 6.36072C4.78512 5.36592 5.53121 4.7227 6.68616 4.7227C6.91909 4.69164 7.15597 4.71087 7.38085 4.77907C7.60572 4.84728 7.81337 4.96288 7.98981 5.1181C8.16624 5.27331 8.30737 5.46454 8.40368 5.67888C8.49999 5.89323 8.54925 6.12573 8.54813 6.36072C8.54813 7.35551 7.80204 7.99871 6.6484 7.99871Z" fill="#D9AD29"/>
</svg>
