<svg width="32" height="32" viewBox="0 0 32 32" fill="none" xmlns="http://www.w3.org/2000/svg">
<path d="M16.0003 9.33341C14.6818 9.33341 13.3929 9.72441 12.2965 10.457C11.2002 11.1895 10.3457 12.2307 9.84113 13.4489C9.33654 14.667 9.20452 16.0075 9.46176 17.3007C9.71899 18.5939 10.3539 19.7818 11.2863 20.7141C12.2186 21.6465 13.4065 22.2814 14.6997 22.5387C15.9929 22.7959 17.3334 22.6639 18.5515 22.1593C19.7697 21.6547 20.8109 20.8002 21.5435 19.7039C22.276 18.6076 22.667 17.3186 22.667 16.0001C22.667 14.232 21.9646 12.5363 20.7144 11.286C19.4641 10.0358 17.7684 9.33341 16.0003 9.33341V9.33341ZM16.0003 20.0001C15.2092 20.0001 14.4358 19.7655 13.778 19.326C13.1202 18.8864 12.6076 18.2617 12.3048 17.5308C12.0021 16.7999 11.9228 15.9956 12.0772 15.2197C12.2315 14.4438 12.6125 13.7311 13.1719 13.1717C13.7313 12.6122 14.444 12.2313 15.22 12.0769C15.9959 11.9226 16.8002 12.0018 17.5311 12.3046C18.262 12.6073 18.8867 13.12 19.3262 13.7778C19.7657 14.4356 20.0003 15.209 20.0003 16.0001C20.0003 17.0609 19.5789 18.0784 18.8288 18.8285C18.0786 19.5787 17.0612 20.0001 16.0003 20.0001ZM22.667 8.00008C22.4033 8.00008 22.1455 8.07828 21.9262 8.22479C21.707 8.3713 21.5361 8.57954 21.4352 8.82317C21.3342 9.06681 21.3078 9.33489 21.3593 9.59354C21.4107 9.85218 21.5377 10.0898 21.7242 10.2762C21.9107 10.4627 22.1482 10.5897 22.4069 10.6411C22.6655 10.6926 22.9336 10.6662 23.1772 10.5653C23.4209 10.4643 23.6291 10.2934 23.7756 10.0742C23.9221 9.85491 24.0003 9.59712 24.0003 9.33341C24.0003 8.97979 23.8599 8.64065 23.6098 8.39061C23.3598 8.14056 23.0206 8.00008 22.667 8.00008ZM29.2537 10.9867C29.2316 9.84731 29.0151 8.72001 28.6137 7.65341C28.2414 6.68284 27.6691 5.8014 26.9341 5.06635C26.199 4.33129 25.3176 3.75904 24.347 3.38675C23.2804 2.98528 22.1531 2.76884 21.0137 2.74675C19.7203 2.66675 19.2937 2.66675 16.0003 2.66675C12.707 2.66675 12.2803 2.66675 10.987 2.74675C9.84756 2.76884 8.72025 2.98528 7.65366 3.38675C6.68308 3.75904 5.80165 4.33129 5.06659 5.06635C4.33153 5.8014 3.75928 6.68284 3.38699 7.65341C2.98552 8.72001 2.76908 9.84731 2.74699 10.9867C2.66699 12.2934 2.66699 12.7201 2.66699 16.0001C2.66699 19.2801 2.66699 19.7067 2.74699 21.0134C2.76908 22.1529 2.98552 23.2802 3.38699 24.3467C3.75928 25.3173 4.33153 26.1988 5.06659 26.9338C5.80165 27.6689 6.68308 28.2411 7.65366 28.6134C8.72025 29.0149 9.84756 29.2313 10.987 29.2534C12.3203 29.2534 12.707 29.3334 16.0003 29.3334C19.2937 29.3334 19.7203 29.3334 21.0137 29.2534C22.1531 29.2313 23.2804 29.0149 24.347 28.6134C25.3176 28.2411 26.199 27.6689 26.9341 26.9338C27.6691 26.1988 28.2414 25.3173 28.6137 24.3467C29.0151 23.2802 29.2316 22.1529 29.2537 21.0134C29.2537 19.6801 29.3337 19.2801 29.3337 16.0001C29.3337 12.7201 29.3337 12.2934 29.2537 10.9867ZM26.587 20.8934C26.5636 21.7396 26.4061 22.5766 26.1203 23.3734C25.884 24.0032 25.5106 24.5725 25.027 25.0401C24.5622 25.5239 23.9918 25.8935 23.3603 26.1201C22.5617 26.4176 21.719 26.5798 20.867 26.6001C19.6137 26.6001 19.227 26.6667 15.987 26.6667C12.747 26.6667 12.3737 26.6667 11.1203 26.6667C10.2697 26.6448 9.428 26.4872 8.62699 26.2001C7.9972 25.9638 7.42789 25.5903 6.96033 25.1067C6.47653 24.642 6.10688 24.0715 5.88033 23.4401C5.58407 22.6457 5.42186 21.8076 5.40033 20.9601C5.40033 19.6267 5.40033 19.2934 5.40033 16.0667C5.40033 12.8401 5.40033 12.4534 5.40033 11.1734C5.42331 10.3217 5.58545 9.47946 5.88033 8.68008C6.1104 8.05426 6.4797 7.48891 6.96033 7.02675C7.42509 6.54295 7.99554 6.17331 8.62699 5.94675C9.42565 5.64928 10.2683 5.48705 11.1203 5.46675C12.3737 5.33341 12.7603 5.33341 16.0003 5.33341C19.2403 5.33341 19.627 5.33341 20.8803 5.33341C21.7365 5.35519 22.5833 5.51734 23.387 5.81341C24.0128 6.04349 24.5782 6.41279 25.0403 6.89341C25.5241 7.35818 25.8938 7.92863 26.1203 8.56008C26.4467 9.3715 26.6316 10.2329 26.667 11.1067C26.667 12.4401 26.7337 12.7734 26.7337 16.0001C26.7337 19.2267 26.667 19.6134 26.667 20.8934H26.587Z" fill="#D9AD29"/>
</svg>
