<svg width="23" height="27" viewBox="0 0 23 27" fill="none" xmlns="http://www.w3.org/2000/svg">
<path d="M22.1215 2.15278H20.3466V0.377882C20.3467 0.328261 20.337 0.279112 20.3181 0.23325C20.2991 0.187388 20.2713 0.145713 20.2362 0.110612C20.2012 0.0755116 20.1595 0.047674 20.1137 0.0286935C20.0678 0.00971295 20.0187 -3.75971e-05 19.969 1.08942e-07H4.7072C4.60714 2.64807e-05 4.51118 0.0397705 4.4404 0.110502L0.110502 4.4404C0.0398234 4.51121 8.90506e-05 4.60715 0 4.70721V24.0937C-1.42795e-08 24.1432 0.00976127 24.1923 0.0287264 24.238C0.0476914 24.2838 0.0754883 24.3254 0.110528 24.3604C0.145569 24.3954 0.187165 24.4232 0.232941 24.4421C0.278716 24.461 0.327774 24.4707 0.377309 24.4707H2.15221V26.2456C2.15213 26.2952 2.16185 26.3444 2.18079 26.3902C2.19974 26.4361 2.22754 26.4778 2.26262 26.5129C2.29769 26.548 2.33935 26.5758 2.38519 26.5948C2.43104 26.6138 2.48018 26.6235 2.5298 26.6235H22.1215C22.1712 26.6236 22.2204 26.614 22.2663 26.5951C22.3122 26.5762 22.3539 26.5484 22.3891 26.5134C22.4242 26.4783 22.4521 26.4367 22.4712 26.3908C22.4902 26.345 22.5 26.2958 22.5 26.2462V2.5298C22.5 2.48017 22.4902 2.43103 22.4712 2.38519C22.4521 2.33936 22.4242 2.29773 22.3891 2.2627C22.3539 2.22767 22.3122 2.19993 22.2663 2.18107C22.2204 2.16221 22.1712 2.15259 22.1215 2.15278ZM4.3299 1.28823V4.3299H1.28709L4.3299 1.28823ZM0.754618 5.08451H4.7072C4.75675 5.08451 4.80582 5.07475 4.85159 5.05579C4.89737 5.03683 4.93897 5.00904 4.974 4.974C5.00904 4.93897 5.03683 4.89737 5.05579 4.85159C5.07475 4.80582 5.08451 4.75675 5.08451 4.70721V0.754619H19.5917V23.7164H0.754618V5.08451ZM21.7442 25.868H2.9074V24.4707H19.9693C20.0189 24.4707 20.0679 24.461 20.1137 24.4421C20.1595 24.4232 20.2011 24.3954 20.2361 24.3604C20.2712 24.3254 20.299 24.2838 20.3179 24.238C20.3369 24.1923 20.3466 24.1432 20.3466 24.0937V2.90711H21.7442V25.868ZM3.40867 6.51388C3.40867 6.41389 3.44839 6.31799 3.51909 6.24729C3.5898 6.17658 3.6857 6.13686 3.78569 6.13686H8.12417C8.17458 6.13547 8.22475 6.1442 8.27172 6.16253C8.3187 6.18086 8.36152 6.20842 8.39766 6.24358C8.43381 6.27874 8.46253 6.32079 8.48215 6.36724C8.50177 6.41369 8.51187 6.4636 8.51187 6.51402C8.51187 6.56445 8.50177 6.61436 8.48215 6.66081C8.46253 6.70726 8.43381 6.74931 8.39766 6.78447C8.36152 6.81963 8.3187 6.84719 8.27172 6.86552C8.22475 6.88385 8.17458 6.89258 8.12417 6.89119H3.78569C3.73615 6.89119 3.6871 6.88143 3.64134 6.86246C3.59558 6.8435 3.55401 6.8157 3.51899 6.78066C3.48398 6.74562 3.45621 6.70402 3.43728 6.65825C3.41835 6.61247 3.40863 6.56342 3.40867 6.51388ZM3.40867 8.52696C3.40863 8.47742 3.41835 8.42837 3.43728 8.38259C3.45621 8.33682 3.48398 8.29522 3.51899 8.26018C3.55401 8.22514 3.59558 8.19734 3.64134 8.17838C3.6871 8.15941 3.73615 8.14965 3.78569 8.14965H10.6546C10.7546 8.14965 10.8506 8.1894 10.9213 8.26016C10.9921 8.33092 11.0319 8.42689 11.0319 8.52696C11.0319 8.62703 10.9921 8.723 10.9213 8.79376C10.8506 8.86452 10.7546 8.90427 10.6546 8.90427H3.78569C3.73615 8.90427 3.6871 8.89451 3.64134 8.87554C3.59558 8.85658 3.55401 8.82878 3.51899 8.79374C3.48398 8.7587 3.45621 8.7171 3.43728 8.67133C3.41835 8.62555 3.40863 8.5765 3.40867 8.52696ZM16.9377 11.1361C16.9377 11.2361 16.8979 11.3321 16.8272 11.4029C16.7564 11.4736 16.6605 11.5134 16.5604 11.5134H3.78569C3.68746 11.5107 3.59416 11.4697 3.52563 11.3993C3.45711 11.3289 3.41877 11.2345 3.41877 11.1362C3.41877 11.0379 3.45711 10.9435 3.52563 10.8731C3.59416 10.8027 3.68746 10.7617 3.78569 10.759H16.5604C16.6604 10.759 16.7563 10.7988 16.8271 10.8695C16.8978 10.9401 16.9376 11.036 16.9377 11.1361ZM16.9377 14.0128C16.9377 14.1129 16.8979 14.2089 16.8272 14.2796C16.7564 14.3504 16.6605 14.3901 16.5604 14.3901H3.78569C3.68746 14.3874 3.59416 14.3465 3.52563 14.2761C3.45711 14.2056 3.41877 14.1112 3.41877 14.013C3.41877 13.9147 3.45711 13.8203 3.52563 13.7499C3.59416 13.6794 3.68746 13.6385 3.78569 13.6358H16.5604C16.61 13.6358 16.659 13.6456 16.7048 13.6646C16.7506 13.6835 16.7922 13.7114 16.8273 13.7464C16.8623 13.7815 16.8901 13.8231 16.9091 13.8689C16.928 13.9147 16.9377 13.9638 16.9377 14.0134V14.0128ZM16.9377 16.8902C16.9377 16.9902 16.8979 17.0862 16.8272 17.157C16.7564 17.2277 16.6605 17.2675 16.5604 17.2675H3.78569C3.68746 17.2648 3.59416 17.2239 3.52563 17.1534C3.45711 17.083 3.41877 16.9886 3.41877 16.8903C3.41877 16.792 3.45711 16.6977 3.52563 16.6272C3.59416 16.5568 3.68746 16.5159 3.78569 16.5131H16.5604C16.6604 16.5131 16.7563 16.5529 16.8271 16.6236C16.8978 16.6943 16.9376 16.7902 16.9377 16.8902ZM16.9377 19.7669C16.9377 19.867 16.8979 19.963 16.8272 20.0337C16.7564 20.1045 16.6605 20.1442 16.5604 20.1442H12.982C12.8819 20.1442 12.7859 20.1045 12.7152 20.0337C12.6444 19.963 12.6046 19.867 12.6046 19.7669C12.6046 19.6669 12.6444 19.5709 12.7152 19.5001C12.7859 19.4294 12.8819 19.3896 12.982 19.3896H16.5604C16.6605 19.3896 16.7564 19.4294 16.8272 19.5001C16.8979 19.5709 16.9377 19.6669 16.9377 19.7669Z" fill="white"/>
</svg>
