<svg width="23" height="35" viewBox="0 0 23 35" fill="none" xmlns="http://www.w3.org/2000/svg">
<path d="M0.499736 19.9432C0.499736 19.6568 0.736106 19.4204 1.02246 19.4204H11.2497C11.5396 19.4204 11.7725 19.6552 11.7725 19.9432L11.7725 31.1932C11.7725 32.6096 10.6208 33.7614 9.20428 33.7614H3.06792C1.65145 33.7614 0.499736 32.6096 0.499736 31.1932L0.499736 19.9432Z" stroke="white"/>
<path d="M18.7428 1.04557L18.7424 1.04556C17.9828 1.02567 17.2641 1.30501 16.7186 1.8345C16.1729 2.36429 15.8734 3.07547 15.8734 3.83552C15.8734 4.02566 15.7164 4.18268 15.5263 4.18268C15.3361 4.18268 15.1791 4.02566 15.1791 3.83552C15.1791 2.88404 15.5524 1.99861 16.2338 1.33616C16.9146 0.674377 17.806 0.328955 18.7626 0.350992C20.5744 0.402025 22.0975 1.92268 22.1481 3.73374L22.1481 3.73407C22.1829 4.94129 21.6041 6.05852 20.6018 6.73091C19.6024 7.4011 19.0107 8.53669 19.0107 9.76142C19.0107 9.95156 18.8537 10.1086 18.6635 10.1086C18.4734 10.1086 18.3163 9.95156 18.3163 9.76142C18.3163 8.29611 19.0275 6.94949 20.2142 6.15512L20.2146 6.15482C21.0139 5.618 21.4812 4.7209 21.4535 3.7561C21.4135 2.29804 20.2009 1.08552 18.7428 1.04557Z" stroke="white" stroke-width="0.7"/>
<path d="M19.1816 11.5057C19.1816 11.7912 18.9501 12.0227 18.6645 12.0227C18.379 12.0227 18.1475 11.7912 18.1475 11.5057C18.1475 11.2201 18.379 10.9886 18.6645 10.9886C18.9501 10.9886 19.1816 11.2201 19.1816 11.5057Z" stroke="white" stroke-width="0.5"/>
<circle cx="6.1361" cy="11.25" r="4.61364" stroke="white"/>
</svg>
