<svg width="23" height="23" viewBox="0 0 23 23" fill="none" xmlns="http://www.w3.org/2000/svg">
<path d="M20.4812 4.82138H20.893C21.3372 4.82138 21.6966 4.46197 21.6966 4.0178C21.6966 3.57364 21.3372 3.21423 20.893 3.21423H18.4823C18.0381 3.21423 17.6787 3.57364 17.6787 4.0178V6.42852C17.6787 6.87268 18.0381 7.23209 18.4823 7.23209C18.9264 7.23209 19.2859 6.87268 19.2859 6.42852V5.93173C20.3241 7.5017 20.893 9.35289 20.893 11.2499C20.893 13.098 20.3688 14.8935 19.3777 16.4418C19.1383 16.8153 19.2474 17.312 19.6209 17.5514C19.7551 17.6377 19.905 17.6785 20.0533 17.6785C20.3178 17.6785 20.5775 17.5475 20.7306 17.3081C21.888 15.5009 22.5001 13.4056 22.5001 11.2499C22.5001 8.94772 21.7883 6.69935 20.4812 4.82138Z" fill="white"/>
<path d="M4.01744 4.82143H6.42815C6.87231 4.82143 7.23172 4.46202 7.23172 4.01786C7.23172 3.5737 6.87231 3.21429 6.42815 3.21429H5.92038C7.49898 2.16171 9.32609 1.60714 11.2496 1.60714C13.0765 1.60714 14.8547 2.12036 16.3912 3.09108C16.7671 3.32807 17.263 3.21507 17.5 2.84075C17.737 2.46565 17.6248 1.96891 17.2497 1.73192C15.4558 0.598755 13.3809 0 11.2496 0C8.91832 0 6.7112 0.704057 4.82101 2.02629V1.60714C4.82101 1.16298 4.4616 0.803571 4.01744 0.803571C3.57328 0.803571 3.21387 1.16298 3.21387 1.60714V4.01786C3.21387 4.46202 3.57328 4.82143 4.01744 4.82143Z" fill="white"/>
<path d="M4.01786 15.2679C3.5737 15.2679 3.21429 15.6273 3.21429 16.0715V16.5682C2.17598 14.9983 1.60714 13.1471 1.60714 11.2501C1.60714 9.40202 2.13135 7.60654 3.12247 6.05825C3.36182 5.68472 3.25274 5.18798 2.8792 4.94863C2.50488 4.70772 2.00736 4.81758 1.76958 5.1919C0.612096 6.99915 0 9.0944 0 11.2501C0 13.5523 0.711806 15.8007 2.01898 17.6786H1.60714C1.16298 17.6786 0.803571 18.0381 0.803571 18.4822C0.803571 18.9264 1.16298 19.2858 1.60714 19.2858H4.01786C4.46202 19.2858 4.82143 18.9264 4.82143 18.4822V16.0715C4.82143 15.6273 4.46202 15.2679 4.01786 15.2679Z" fill="white"/>
<path d="M18.4828 17.6786H16.0721C15.6279 17.6786 15.2685 18.038 15.2685 18.4822C15.2685 18.9263 15.6279 19.2857 16.0721 19.2857H16.5696C14.9994 20.324 13.1477 20.8929 11.2506 20.8929C9.42377 20.8929 7.64556 20.3797 6.10904 19.4089C5.73394 19.1727 5.23798 19.2849 5.00021 19.6593C4.76322 20.0344 4.87543 20.5311 5.25054 20.7681C7.04445 21.9013 9.1193 22.5 11.2506 22.5C13.5532 22.5 15.8014 21.7884 17.6792 20.4816V20.8929C17.6792 21.337 18.0386 21.6964 18.4828 21.6964C18.9269 21.6964 19.2864 21.337 19.2864 20.8929V18.4822C19.2864 18.038 18.9269 17.6786 18.4828 17.6786Z" fill="white"/>
<path d="M15.2681 12.0802L11.8836 13.5304C11.6831 13.6167 11.4696 13.6606 11.2503 13.6606C11.0309 13.6606 10.8175 13.6167 10.6162 13.53L7.23242 12.0798V13.6606C7.23242 13.9651 7.40428 14.2433 7.67658 14.3795L10.8909 15.9866C11.0039 16.0431 11.1271 16.0714 11.2503 16.0714C11.3735 16.0714 11.4967 16.0431 11.6097 15.9866L14.824 14.3795C15.0963 14.2433 15.2681 13.9651 15.2681 13.6606V12.0802Z" fill="white"/>
<path d="M17.1915 8.90439L11.5665 6.49367C11.364 6.40657 11.1357 6.40657 10.9332 6.49367L5.30822 8.90439C5.01277 9.03073 4.82129 9.32148 4.82129 9.64283C4.82129 9.96418 5.01277 10.2549 5.30822 10.3813L10.9332 12.792C11.0344 12.8355 11.142 12.8571 11.2499 12.8571C11.3578 12.8571 11.4653 12.8355 11.5665 12.792L16.0713 10.8614V15.2678C16.0713 15.7116 16.4311 16.0714 16.8749 16.0714C17.3186 16.0714 17.6784 15.7116 17.6784 15.2678V9.64283C17.6784 9.32148 17.487 9.03073 17.1915 8.90439Z" fill="white"/>
</svg>
