<svg width="23" height="23" viewBox="0 0 23 23" fill="none" xmlns="http://www.w3.org/2000/svg">
<path d="M11.25 0C9.02496 0 6.84989 0.659801 4.99984 1.89597C3.14979 3.13213 1.70785 4.88914 0.85636 6.94481C0.00487444 9.00048 -0.217913 11.2625 0.216171 13.4448C0.650254 15.627 1.72171 17.6316 3.29505 19.2049C4.86839 20.7783 6.87295 21.8497 9.05524 22.2838C11.2375 22.7179 13.4995 22.4951 15.5552 21.6436C17.6109 20.7922 19.3679 19.3502 20.604 17.5002C21.8402 15.6501 22.5 13.475 22.5 11.25C22.5 9.77263 22.209 8.30972 21.6436 6.94481C21.0783 5.5799 20.2496 4.33971 19.205 3.29505C18.1603 2.25039 16.9201 1.42172 15.5552 0.856355C14.1903 0.29099 12.7274 0 11.25 0ZM11.25 20.8125C9.35872 20.8125 7.50991 20.2517 5.93736 19.2009C4.36482 18.1502 3.13917 16.6567 2.41541 14.9094C1.69164 13.1621 1.50227 11.2394 1.87125 9.38445C2.24022 7.5295 3.15096 5.82563 4.4883 4.48829C5.82564 3.15095 7.52951 2.24021 9.38445 1.87124C11.2394 1.50227 13.1621 1.69164 14.9094 2.4154C16.6567 3.13916 18.1502 4.36481 19.2009 5.93736C20.2517 7.5099 20.8125 9.35871 20.8125 11.25C20.8125 13.7861 19.805 16.2184 18.0117 18.0117C16.2184 19.805 13.7861 20.8125 11.25 20.8125Z" fill="white"/>
<path d="M11.25 10.6875C10.9516 10.6875 10.6655 10.806 10.4545 11.017C10.2435 11.228 10.125 11.5141 10.125 11.8125V15.75C10.125 16.0484 10.2435 16.3345 10.4545 16.5455C10.6655 16.7565 10.9516 16.875 11.25 16.875C11.5484 16.875 11.8345 16.7565 12.0455 16.5455C12.2565 16.3345 12.375 16.0484 12.375 15.75V11.8125C12.375 11.5141 12.2565 11.228 12.0455 11.017C11.8345 10.806 11.5484 10.6875 11.25 10.6875Z" fill="white"/>
<path d="M11.25 5.625C10.9162 5.625 10.59 5.72397 10.3125 5.9094C10.035 6.09482 9.81868 6.35837 9.69095 6.66672C9.56323 6.97507 9.52981 7.31437 9.59493 7.64171C9.66004 7.96906 9.82076 8.26974 10.0568 8.50574C10.2928 8.74174 10.5934 8.90246 10.9208 8.96757C11.2481 9.03269 11.5874 8.99927 11.8958 8.87155C12.2041 8.74382 12.4677 8.52753 12.6531 8.25002C12.8385 7.97252 12.9375 7.64626 12.9375 7.3125C12.9375 6.86495 12.7597 6.43572 12.4432 6.11926C12.1268 5.80279 11.6976 5.625 11.25 5.625Z" fill="white"/>
</svg>
